<svg xmlns="http://www.w3.org/2000/svg" id="Logo" width="68" height="24.004" viewBox="0 0 68 24.004">
  <g id="Layer_1" data-name="Layer 1">
    <path id="Path_4309" data-name="Path 4309" d="M195.476.526l-6.269,6.263a1.8,1.8,0,0,0-.527,1.27V22.205a1.8,1.8,0,0,0,1.8,1.8h10.968a1.8,1.8,0,0,0,1.274-.529l6.269-6.263a1.8,1.8,0,0,0,.527-1.27V1.8a1.8,1.8,0,0,0-1.8-1.8H196.75a1.809,1.809,0,0,0-1.274.526Zm10.6,14.915-2.126,2.122a1.505,1.505,0,0,1-1.061.438h-4.3a.448.448,0,0,1-.318-.767l2.969-2.956a.448.448,0,0,0-.318-.767h-4.17a.752.752,0,0,1-.752-.752v-9a.752.752,0,0,1,.752-.752h9.012a.752.752,0,0,1,.752.752V14.382A1.5,1.5,0,0,1,206.078,15.441Z" transform="translate(-141.518 0)" fill="#4c9f87" fill-rule="evenodd"/>
    <rect id="Rectangle_1677" data-name="Rectangle 1677" width="4.499" height="4.499" rx="2.249" transform="translate(27.782 1.525)" fill="#3c3b39"/>
    <rect id="Rectangle_1678" data-name="Rectangle 1678" width="4.499" height="16.495" rx="2.249" transform="translate(9.849 1.525)" fill="#3c3b39"/>
    <path id="Path_4310" data-name="Path 4310" d="M145.056,42.435l-2.119,2.109a1.5,1.5,0,0,1-1.061.441h-4.291a.451.451,0,0,1-.329-.76l2.962-2.962a.449.449,0,0,0-.318-.767h-4.148a.752.752,0,0,1-.752-.752V30.752a.752.752,0,0,1,.752-.752h8.995a.752.752,0,0,1,.752.752V41.375A1.5,1.5,0,0,1,145.056,42.435Z" transform="translate(-101.241 -22.501)" fill="#3c3b39" fill-rule="evenodd"/>
    <path id="Path_4311" data-name="Path 4311" d="M7.954,42.435,5.835,44.544a1.5,1.5,0,0,1-1.061.441H.484a.451.451,0,0,1-.318-.76l3.4-3.4a1.126,1.126,0,0,0,.331-.795V30.752A.752.752,0,0,1,4.649,30H7.658a.752.752,0,0,1,.752.752V41.375a1.5,1.5,0,0,1-.456,1.061Z" transform="translate(-0.044 -22.501)" fill="#3c3b39" fill-rule="evenodd"/>
    <path id="Path_4312" data-name="Path 4312" d="M75.229,35.248v-4.5A.752.752,0,0,1,75.981,30H78.99a.752.752,0,0,1,.752.752v8.995a.752.752,0,0,1-.752.752H63.982a.752.752,0,0,1-.752-.752V36.738a.752.752,0,0,1,.752-.752h4.5a.752.752,0,0,0,.752-.752h0a.752.752,0,0,0-.752-.752h-4.5a.752.752,0,0,1-.752-.752V30.752A.752.752,0,0,1,63.982,30h9a.752.752,0,0,1,.752.752v4.5a.752.752,0,0,0,.752.752h0A.752.752,0,0,0,75.229,35.248Z" transform="translate(-47.429 -22.491)" fill="#3c3b39" fill-rule="evenodd"/>
    <path id="Path_4313" data-name="Path 4313" d="M227.956,24.448l-2.126,2.124a1.5,1.5,0,0,1-1.061.439h-4.3a.449.449,0,0,1-.318-.767l2.969-2.959a.449.449,0,0,0-.318-.767h-4.17a.752.752,0,0,1-.752-.752V12.752a.752.752,0,0,1,.752-.752h9.012a.752.752,0,0,1,.752.752V23.387A1.5,1.5,0,0,1,227.956,24.448Z" transform="translate(-163.396 -8.991)" fill="#fff" fill-rule="evenodd"/>
  </g>
</svg>